<?xml version="1.0" standalone="no"?>
<!DOCTYPE svg PUBLIC "-//W3C//DTD SVG 20010904//EN"
  "http://www.w3.org/TR/2001/REC-SVG-20010904/DTD/svg10.dtd">
<svg version="1.0" xmlns="http://www.w3.org/2000/svg"
     width="320.000000pt" height="320.000000pt" viewBox="0 0 320.000000 320.000000"
     preserveAspectRatio="xMidYMid meet">
  <metadata>
    Created by potrace 1.14, written by Peter Selinger 2001-2017
  </metadata>
  <g transform="translate(0.000000,320.000000) scale(0.100000,-0.100000)"
     fill="#000000" stroke="none">
    <path d="M1528 2808 l-3 -73 -80 -1 -80 -2 -3 -70 -3 -71 83 -3 83 -3 3 -117
3 -117 -28 -15 c-42 -21 -115 -89 -158 -145 l-38 -49 -60 49 c-69 55 -172 112
-236 129 -59 15 -166 16 -233 0 -210 -49 -421 -247 -473 -445 -22 -86 -20
-233 6 -325 50 -184 171 -362 379 -564 l103 -100 -43 -255 c-23 -141 -44 -268
-47 -283 l-5 -28 901 0 901 0 -5 23 c-11 49 -85 507 -85 527 0 15 30 50 90
107 371 350 498 710 351 1001 -76 151 -245 288 -414 337 -69 20 -183 22 -247
5 -68 -18 -189 -84 -246 -135 l-52 -45 -43 57 c-46 58 -124 127 -159 138 -19
6 -20 15 -20 131 l0 124 85 0 86 0 -3 71 -3 71 -80 2 -80 1 -3 73 -3 72 -69 0
-69 0 -3 -72z m140 -597 c35 -26 142 -143 142 -156 0 -3 -15 -26 -34 -52 -61
-86 -117 -214 -173 -393 -2 -8 -19 30 -37 85 -43 130 -74 198 -130 285 -25 39
-46 74 -46 78 0 14 124 145 155 163 42 27 76 24 123 -10z m-625 -29 c147 -69
264 -193 355 -375 85 -171 169 -445 190 -622 8 -68 9 -69 15 -30 48 277 103
462 188 636 93 191 200 308 345 380 144 72 265 63 407 -31 188 -123 277 -300
248 -490 -20 -124 -64 -216 -178 -370 -72 -96 -336 -360 -361 -360 -10 0 -44
9 -76 20 -85 29 -268 67 -381 80 -246 27 -546 -4 -770 -80 l-87 -29 -153 152
c-166 165 -255 278 -316 399 -134 266 -67 517 181 677 135 88 268 102 393 43z
m664 -1334 c57 -35 103 -65 103 -68 0 -3 -48 -33 -106 -67 l-106 -63 -99 61
c-54 34 -101 65 -104 69 -5 8 180 128 200 129 5 1 56 -27 112 -61z m-712 -80
c47 -28 82 -55 78 -59 -15 -14 -205 -121 -209 -117 -6 7 33 228 40 228 3 0 43
-23 91 -52z m1305 45 c0 -5 8 -56 19 -115 10 -60 16 -108 13 -108 -8 0 -202
112 -207 120 -3 5 32 31 77 59 84 51 98 57 98 44z m45 -275 c3 -7 6 -32 7 -55
l3 -43 -758 -2 c-751 -3 -757 -3 -757 17 0 11 3 37 6 58 l7 37 744 0 c586 0
745 -3 748 -12z"/>
    <path d="M1575 2132 c-11 -9 -33 -32 -48 -51 -22 -26 -25 -36 -16 -47 6 -8 29
-46 49 -86 l38 -71 27 54 c15 30 36 66 46 81 11 14 19 31 19 37 0 12 -79 101
-89 101 -3 -1 -15 -8 -26 -18z"/>
    <path d="M820 2071 c-96 -31 -209 -129 -249 -215 -56 -122 -30 -275 75 -427
56 -82 187 -230 262 -296 l64 -56 108 27 c59 15 161 34 227 43 65 8 123 17
130 19 16 4 7 94 -22 209 -30 120 -125 352 -182 443 -55 90 -152 188 -222 226
-56 30 -144 43 -191 27z"/>
    <path d="M2228 2065 c-80 -30 -176 -115 -245 -215 -99 -146 -212 -450 -229
-619 l-7 -71 39 0 c56 0 202 -25 332 -56 l113 -28 95 95 c212 209 300 346 325
502 24 145 -71 301 -231 382 -46 23 -145 29 -192 10z"/>
  </g>
</svg>
