<?xml version="1.0" standalone="no"?>
<!DOCTYPE svg PUBLIC "-//W3C//DTD SVG 20010904//EN"
  "http://www.w3.org/TR/2001/REC-SVG-20010904/DTD/svg10.dtd">
<svg version="1.0" xmlns="http://www.w3.org/2000/svg"
     width="320.000000pt" height="320.000000pt" viewBox="0 0 320.000000 320.000000"
     preserveAspectRatio="xMidYMid meet">
  <metadata>
    Created by potrace 1.14, written by Peter Selinger 2001-2017
  </metadata>
  <g transform="translate(0.000000,320.000000) scale(0.100000,-0.100000)"
     fill="#000000" stroke="none">
    <path d="M1532 2628 c-290 -44 -423 -419 -227 -637 22 -24 34 -45 29 -50 -5
-5 -101 -86 -214 -181 -113 -95 -206 -175 -208 -179 -1 -3 93 -5 209 -3 117 2
216 -1 220 -5 11 -11 -22 -157 -61 -275 -73 -219 -174 -369 -330 -486 -113
-84 -182 -153 -216 -216 -26 -46 -29 -63 -32 -163 l-4 -113 902 0 902 0 -4
113 c-3 93 -8 120 -27 156 -31 60 -110 142 -201 209 -155 115 -250 239 -318
415 -36 92 -86 273 -94 337 l-3 25 218 0 c119 0 216 3 215 7 -2 4 -97 86 -213
183 -115 97 -212 179 -214 181 -3 2 12 21 32 42 20 20 49 64 64 97 25 53 28
71 28 160 0 87 -4 107 -26 155 -78 166 -246 255 -427 228z"/>
  </g>
</svg>
