<?xml version="1.0" standalone="no"?>
<!DOCTYPE svg PUBLIC "-//W3C//DTD SVG 20010904//EN"
  "http://www.w3.org/TR/2001/REC-SVG-20010904/DTD/svg10.dtd">
<svg version="1.0" xmlns="http://www.w3.org/2000/svg"
     width="320.000000pt" height="320.000000pt" viewBox="0 0 320.000000 320.000000"
     preserveAspectRatio="xMidYMid meet">
  <metadata>
    Created by potrace 1.14, written by Peter Selinger 2001-2017
  </metadata>
  <g transform="translate(0.000000,320.000000) scale(0.100000,-0.100000)"
     fill="#000000" stroke="none">
    <path d="M1135 2754 c-5 -1 -22 -5 -37 -8 -37 -8 -84 -50 -115 -103 -49 -85
-24 -206 54 -254 17 -11 30 -25 28 -32 -2 -7 -36 -169 -75 -362 -39 -192 -74
-357 -78 -366 -6 -14 -33 2 -152 87 -101 72 -144 109 -143 121 1 10 7 38 13
63 9 34 9 55 1 88 -14 51 -73 119 -118 139 -68 28 -167 10 -222 -40 -55 -50
-77 -159 -48 -230 29 -67 121 -127 198 -127 23 0 35 -14 87 -102 81 -136 152
-288 200 -429 64 -185 77 -255 76 -409 -2 -150 -25 -262 -82 -398 l-31 -72
909 0 909 0 -31 72 c-60 143 -81 247 -81 408 0 131 3 156 31 261 52 194 132
379 249 577 47 79 59 92 81 92 78 0 170 60 199 127 28 68 10 167 -40 222 -50
55 -159 77 -230 48 -45 -20 -104 -88 -118 -139 -8 -33 -8 -54 1 -88 6 -25 12
-53 13 -63 1 -12 -42 -49 -143 -121 -119 -85 -146 -101 -152 -87 -4 9 -39 171
-78 361 -38 190 -72 353 -74 362 -3 12 7 24 28 37 79 49 102 176 47 262 -31
49 -72 86 -105 95 -76 19 -152 1 -204 -48 -44 -42 -62 -85 -62 -147 0 -60 13
-97 46 -132 l24 -25 -152 -317 c-84 -174 -155 -317 -158 -317 -3 0 -74 142
-158 316 l-151 316 31 39 c34 42 46 107 34 174 -9 45 -75 120 -119 134 -35 12
-86 19 -102 15z m665 -1609 c130 -18 335 -71 471 -123 26 -10 26 -11 16 -74
-5 -34 -11 -64 -13 -66 -1 -2 -65 17 -141 41 -238 78 -320 92 -533 92 -212 0
-290 -13 -530 -91 -76 -24 -140 -44 -143 -44 -6 0 -22 122 -17 130 6 11 132
53 259 86 227 60 427 76 631 49z m-94 -327 c57 -35 103 -66 104 -69 0 -4 -47
-35 -105 -69 l-104 -62 -105 64 c-58 34 -104 66 -103 71 2 7 196 127 206 127
2 0 50 -28 107 -62z m-677 -56 l74 -46 -23 -18 c-33 -27 -170 -111 -174 -107
-3 4 9 124 20 197 3 22 9 30 17 26 7 -4 45 -27 86 -52z m1260 -107 c5 -33 7
-62 5 -64 -4 -4 -140 80 -174 107 l-23 18 84 52 84 52 8 -52 c4 -29 11 -80 16
-113z m35 -159 c9 -30 16 -56 16 -58 0 -1 -333 -3 -740 -3 -520 0 -740 3 -740
11 0 6 7 31 16 57 l16 47 708 0 709 0 15 -54z"/>
  </g>
</svg>
