<?xml version="1.0" standalone="no"?>
<!DOCTYPE svg PUBLIC "-//W3C//DTD SVG 20010904//EN"
  "http://www.w3.org/TR/2001/REC-SVG-20010904/DTD/svg10.dtd">
<svg version="1.0" xmlns="http://www.w3.org/2000/svg"
     width="320.000000pt" height="320.000000pt" viewBox="0 0 320.000000 320.000000"
     preserveAspectRatio="xMidYMid meet">
  <metadata>
    Created by potrace 1.14, written by Peter Selinger 2001-2017
  </metadata>
  <g transform="translate(0.000000,320.000000) scale(0.100000,-0.100000)"
     fill="#000000" stroke="none">
    <path d="M1708 2799 l-88 -119 -235 -156 c-181 -119 -243 -165 -267 -198 -23
-34 -99 -90 -329 -245 l-298 -202 -3 -225 c-2 -124 -1 -227 1 -229 2 -2 47 25
99 61 l97 64 39 -40 c22 -21 38 -41 36 -43 -3 -2 -42 -30 -88 -62 -45 -32 -79
-62 -75 -66 13 -13 313 -179 323 -179 5 0 28 37 52 82 49 92 84 132 137 154
55 23 157 32 251 22 47 -6 107 -10 133 -9 108 0 265 70 340 150 53 56 126 196
159 305 l21 69 16 -29 c11 -20 15 -52 14 -99 -3 -143 -38 -232 -128 -320 -106
-105 -255 -165 -410 -165 l-81 0 -65 -64 c-47 -45 -79 -68 -116 -80 -87 -29
-248 -215 -312 -360 -45 -103 -81 -294 -81 -427 l0 -69 970 0 c534 0 970 1
970 3 0 2 -14 43 -30 93 -69 202 -86 378 -59 594 20 153 17 509 -4 635 -22
125 -60 259 -97 342 -90 199 -290 393 -563 547 l-91 52 -71 162 c-39 89 -73
164 -76 166 -2 2 -43 -50 -91 -115z m361 -396 c167 -92 283 -195 338 -299 43
-81 80 -207 105 -349 18 -108 20 -150 15 -405 -2 -157 -10 -342 -18 -412 -19
-189 8 -327 86 -445 19 -29 31 -53 25 -53 -5 0 -47 37 -93 83 -62 60 -93 100
-118 152 -34 70 -34 71 -37 231 -2 89 1 226 8 305 22 284 23 407 6 557 -19
159 -43 250 -88 332 -56 101 -155 213 -273 307 -53 43 -37 41 44 -4z m-521
-108 c54 -45 113 -155 85 -155 -172 -4 -333 -4 -333 0 0 12 191 180 205 180 7
0 27 -11 43 -25z m-734 -479 l30 -23 -40 -42 -39 -42 -47 17 c-27 9 -48 20
-48 25 0 5 7 27 16 49 15 38 19 40 58 40 28 0 50 -7 70 -24z"/>
  </g>
</svg>
