<?xml version="1.0" standalone="no"?>
<!DOCTYPE svg PUBLIC "-//W3C//DTD SVG 20010904//EN"
  "http://www.w3.org/TR/2001/REC-SVG-20010904/DTD/svg10.dtd">
<svg version="1.0" xmlns="http://www.w3.org/2000/svg"
     width="320.000000pt" height="320.000000pt" viewBox="0 0 320.000000 320.000000"
     preserveAspectRatio="xMidYMid meet">
  <metadata>
    Created by potrace 1.14, written by Peter Selinger 2001-2017
  </metadata>
  <g transform="translate(0.000000,320.000000) scale(0.100000,-0.100000)"
     fill="#000000" stroke="none">
    <path d="M722 2383 l3 -268 120 -82 c66 -45 121 -85 122 -90 4 -11 -74 -1023
-78 -1027 -2 -2 -59 -45 -126 -95 -75 -56 -123 -98 -123 -108 0 -10 -9 -94
-20 -188 -11 -93 -20 -178 -20 -187 0 -17 54 -18 1001 -18 l1002 0 -6 43 c-3
23 -13 116 -23 206 l-18 164 -123 90 c-116 86 -123 93 -128 131 -4 34 -75 966
-75 988 0 4 54 44 120 88 l120 82 0 269 0 269 -215 0 -215 0 0 -115 0 -115
-110 0 -110 0 0 115 0 115 -220 0 -219 0 -3 -112 -3 -113 -107 -3 -108 -3 0
116 0 115 -220 0 -220 0 2 -267z m1388 -448 l0 -70 -510 0 -510 0 0 70 0 70
510 0 510 0 0 -70z m78 -1010 l-3 -65 -585 0 -585 0 -3 65 -3 65 591 0 591 0
-3 -65z"/>
  </g>
</svg>
