<?xml version="1.0" standalone="no"?>
<!DOCTYPE svg PUBLIC "-//W3C//DTD SVG 20010904//EN"
  "http://www.w3.org/TR/2001/REC-SVG-20010904/DTD/svg10.dtd">
<svg version="1.0" xmlns="http://www.w3.org/2000/svg"
     width="320.000000pt" height="320.000000pt" viewBox="0 0 320.000000 320.000000"
     preserveAspectRatio="xMidYMid meet">
  <metadata>
    Created by potrace 1.14, written by Peter Selinger 2001-2017
  </metadata>
  <g transform="translate(0.000000,320.000000) scale(0.100000,-0.100000)"
     fill="#000000" stroke="none">
    <path d="M1505 2931 c-75 -35 -125 -111 -125 -190 0 -60 16 -92 66 -137 l46
-41 -132 -93 c-277 -197 -411 -330 -495 -491 -79 -152 -94 -292 -46 -420 27
-71 121 -213 201 -304 l62 -70 -5 -65 c-5 -64 -52 -211 -82 -256 -8 -13 -15
-26 -15 -28 0 -3 73 -7 161 -8 l162 -3 -34 -45 c-62 -82 -73 -84 -399 -88
-174 -1 -299 -7 -320 -14 -119 -38 -212 -159 -226 -297 l-7 -62 444 3 c406 3
448 5 494 23 137 51 255 151 305 257 17 35 30 71 30 81 0 9 5 17 10 17 6 0 10
-8 10 -17 0 -29 48 -124 86 -170 48 -58 152 -131 233 -162 l66 -26 444 -3 444
-3 -6 62 c-14 128 -88 233 -200 284 -50 23 -62 24 -342 28 -329 3 -343 6 -394
78 -17 23 -31 46 -31 51 0 4 70 8 155 8 l155 0 -21 42 c-40 78 -69 167 -77
238 l-9 71 55 62 c255 286 299 488 162 746 -79 148 -223 289 -489 479 l-134
95 46 41 c52 46 67 77 67 139 -1 80 -55 159 -132 191 -50 21 -134 20 -183 -3z
m163 -930 l3 -81 74 0 75 0 0 -70 0 -70 -75 0 -74 0 -3 -126 -3 -126 -65 0
-65 0 -3 126 -3 126 -74 0 -75 0 0 70 0 70 75 0 75 0 0 78 c0 43 2 81 4 83 2
2 33 3 68 3 l63 -2 3 -81z m123 -646 c88 -13 236 -48 246 -59 3 -3 -10 -30
-28 -60 -24 -40 -38 -55 -49 -50 -8 3 -53 15 -100 27 -72 18 -112 22 -265 21
-159 0 -191 -3 -274 -26 l-93 -25 -36 54 c-27 41 -33 56 -23 62 19 12 187 51
261 60 105 14 258 12 361 -4z m225 -350 l22 -65 -438 0 -438 0 22 65 21 65
395 0 395 0 21 -65z"/>
  </g>
</svg>
