<?xml version="1.0" standalone="no"?>
<!DOCTYPE svg PUBLIC "-//W3C//DTD SVG 20010904//EN"
  "http://www.w3.org/TR/2001/REC-SVG-20010904/DTD/svg10.dtd">
<svg version="1.0" xmlns="http://www.w3.org/2000/svg"
     width="320.000000pt" height="320.000000pt" viewBox="0 0 320.000000 320.000000"
     preserveAspectRatio="xMidYMid meet">
  <metadata>
    Created by potrace 1.14, written by Peter Selinger 2001-2017
  </metadata>
  <g transform="translate(0.000000,320.000000) scale(0.100000,-0.100000)"
     fill="#000000" stroke="none">
    <path d="M1505 2931 c-75 -35 -125 -111 -125 -190 0 -60 16 -92 66 -137 l46
-41 -132 -93 c-277 -197 -411 -330 -495 -491 -79 -152 -94 -292 -46 -420 26
-70 120 -212 200 -304 53 -61 61 -75 61 -110 0 -77 -34 -184 -98 -307 -2 -5
66 -8 152 -8 111 0 156 -3 156 -12 0 -20 -50 -77 -83 -96 -28 -15 -71 -18
-332 -22 -281 -5 -303 -7 -347 -27 -111 -51 -191 -166 -205 -292 l-6 -62 444
3 c406 3 448 5 494 23 137 51 255 151 305 257 17 35 30 71 30 81 0 9 5 17 10
17 6 0 10 -8 10 -17 0 -29 48 -124 86 -170 48 -58 152 -131 233 -162 l66 -26
444 -3 444 -3 -6 62 c-14 126 -94 241 -205 292 -44 20 -66 22 -347 27 -335 6
-342 7 -390 77 -14 21 -25 41 -25 45 0 5 70 8 155 8 85 0 155 2 155 4 0 2 -11
23 -24 47 -35 62 -66 161 -75 236 l-8 64 55 62 c255 286 299 488 162 746 -79
148 -223 289 -489 479 l-134 95 46 41 c52 46 67 77 67 139 -1 80 -55 159 -132
191 -50 21 -134 20 -183 -3z m170 -126 c33 -33 34 -93 2 -131 -20 -22 -31 -26
-77 -26 -46 0 -57 4 -77 26 -34 40 -32 107 3 135 39 31 117 29 149 -4z m33
-372 c281 -196 455 -371 534 -538 30 -64 33 -78 33 -165 -1 -75 -6 -107 -24
-152 -27 -70 -82 -153 -151 -230 l-51 -57 -50 15 c-96 29 -215 45 -354 49
-163 4 -284 -8 -408 -40 l-88 -23 -55 63 c-71 80 -98 120 -137 203 -29 61 -32
75 -32 167 0 92 3 105 33 170 79 167 259 347 547 548 44 31 86 56 94 57 7 0
56 -30 109 -67z m192 -1225 l95 -24 6 -65 c4 -35 14 -89 23 -119 9 -29 16 -55
16 -57 0 -2 -198 -3 -441 -3 -415 0 -440 1 -435 18 18 62 28 112 34 165 l7 61
70 18 c120 31 184 37 360 33 137 -2 188 -8 265 -27z m-400 -425 c0 -67 -45
-158 -104 -210 -57 -50 -169 -110 -222 -118 -51 -8 -714 -12 -714 -4 0 3 16
26 36 52 58 74 67 76 340 78 335 2 407 14 480 81 24 22 58 69 75 104 31 62 33
64 70 64 l39 0 0 -47z m303 -7 c14 -30 44 -75 67 -100 74 -80 143 -93 494 -95
175 -1 247 -5 270 -15 31 -13 100 -86 108 -114 2 -9 -73 -12 -354 -12 -407 0
-405 -1 -534 88 -100 68 -140 134 -160 260 l-7 42 46 0 c45 0 46 0 70 -54z"/>
    <path d="M1537 2084 c-4 -4 -7 -43 -7 -86 l0 -78 -75 0 -75 0 0 -70 0 -70 75
0 74 0 3 -127 3 -128 65 0 65 0 3 128 3 127 74 0 75 0 0 70 0 70 -75 0 -74 0
-3 83 -3 82 -60 3 c-34 2 -64 0 -68 -4z"/>
  </g>
</svg>
