<?xml version="1.0" standalone="no"?>
<!DOCTYPE svg PUBLIC "-//W3C//DTD SVG 20010904//EN"
  "http://www.w3.org/TR/2001/REC-SVG-20010904/DTD/svg10.dtd">
<svg version="1.0" xmlns="http://www.w3.org/2000/svg"
     width="320.000000pt" height="320.000000pt" viewBox="0 0 320.000000 320.000000"
     preserveAspectRatio="xMidYMid meet">
  <metadata>
    Created by potrace 1.14, written by Peter Selinger 2001-2017
  </metadata>
  <g transform="translate(0.000000,320.000000) scale(0.100000,-0.100000)"
     fill="#000000" stroke="none">
    <path d="M724 2641 c-2 -2 -4 -122 -4 -265 l0 -261 125 -84 c69 -47 125 -90
125 -95 -2 -88 -80 -1020 -86 -1026 -5 -4 -62 -46 -126 -94 -73 -53 -118 -93
-118 -103 0 -10 -9 -94 -20 -188 -11 -93 -20 -178 -20 -187 0 -17 54 -18 1001
-18 l1002 0 -6 43 c-3 23 -13 116 -23 206 l-18 164 -123 90 c-103 76 -124 96
-128 121 -4 26 -76 978 -75 997 0 3 54 43 120 88 l120 82 0 267 0 267 -212 -2
-213 -2 -3 -111 -3 -110 -109 0 -109 0 -3 110 -3 111 -217 2 -217 2 -3 -110
-3 -110 -107 -3 -107 -3 -3 111 -3 111 -213 2 c-118 1 -216 0 -218 -2z m326
-226 l0 -115 220 0 220 0 0 115 0 115 110 0 110 0 0 -115 0 -115 220 0 220 0
0 115 0 115 105 0 105 0 0 -177 0 -178 -127 -87 -127 -88 -506 0 -505 0 -127
86 -128 87 0 179 0 178 105 0 105 0 0 -115z m1070 -542 c0 -10 14 -198 30
-418 17 -220 30 -419 30 -442 l0 -43 -584 0 -584 0 5 43 c4 46 63 853 63 868
0 5 218 9 520 9 489 0 520 -1 520 -17z m203 -1114 l125 -92 9 -96 c4 -53 8
-104 8 -114 0 -16 -46 -17 -865 -17 -476 0 -866 3 -867 7 -2 5 3 56 10 115
l12 107 125 93 124 93 598 -2 597 -3 124 -91z"/>
  </g>
</svg>
