<?xml version="1.0" standalone="no"?>
<!DOCTYPE svg PUBLIC "-//W3C//DTD SVG 20010904//EN"
  "http://www.w3.org/TR/2001/REC-SVG-20010904/DTD/svg10.dtd">
<svg version="1.0" xmlns="http://www.w3.org/2000/svg"
     width="320.000000pt" height="320.000000pt" viewBox="0 0 320.000000 320.000000"
     preserveAspectRatio="xMidYMid meet">
  <metadata>
    Created by potrace 1.14, written by Peter Selinger 2001-2017
  </metadata>
  <g transform="translate(0.000000,320.000000) scale(0.100000,-0.100000)"
     fill="#000000" stroke="none">
    <path d="M1532 2628 c-290 -44 -423 -419 -226 -638 l38 -42 -24 -20 c-14 -11
-111 -93 -217 -182 l-193 -161 220 -3 c121 -1 220 -6 220 -10 0 -32 -68 -274
-100 -357 -70 -177 -158 -294 -304 -405 -111 -83 -186 -160 -217 -220 -19 -37
-24 -65 -27 -157 l-4 -113 902 0 902 0 -4 113 c-3 97 -7 119 -30 162 -29 56
-122 150 -211 214 -133 96 -232 226 -299 389 -35 85 -84 253 -101 349 l-6 33
220 2 221 3 -203 170 c-111 94 -210 175 -218 182 -14 10 -11 16 21 50 20 21
50 65 65 98 25 53 28 71 28 160 0 87 -4 107 -26 155 -78 166 -246 255 -427
228z m155 -123 c63 -19 134 -80 164 -143 29 -59 32 -165 6 -233 -22 -57 -80
-115 -140 -137 l-47 -18 170 -145 171 -144 -206 -3 c-113 -1 -297 -1 -410 0
l-205 3 171 145 171 144 -39 13 c-54 18 -122 78 -144 127 -28 62 -26 186 5
252 57 122 196 180 333 139z m73 -1007 c52 -360 184 -596 441 -791 63 -47 124
-101 136 -119 31 -46 55 -107 51 -129 -3 -19 -22 -19 -788 -19 l-785 0 2 35
c5 75 72 155 212 255 215 152 366 432 412 764 l12 86 147 0 148 0 12 -82z"/>
  </g>
</svg>
