<?xml version="1.0" standalone="no"?>
<!DOCTYPE svg PUBLIC "-//W3C//DTD SVG 20010904//EN"
  "http://www.w3.org/TR/2001/REC-SVG-20010904/DTD/svg10.dtd">
<svg version="1.0" xmlns="http://www.w3.org/2000/svg"
     width="320.000000pt" height="320.000000pt" viewBox="0 0 320.000000 320.000000"
     preserveAspectRatio="xMidYMid meet">
  <metadata>
    Created by potrace 1.14, written by Peter Selinger 2001-2017
  </metadata>
  <g transform="translate(0.000000,320.000000) scale(0.100000,-0.100000)"
     fill="#000000" stroke="none">
    <path d="M1135 2754 c-5 -1 -22 -5 -37 -8 -37 -8 -84 -50 -115 -103 -49 -85
-24 -206 53 -254 21 -13 31 -25 28 -37 -2 -9 -36 -172 -74 -362 -39 -190 -74
-352 -78 -361 -6 -14 -33 2 -152 87 -103 73 -144 108 -143 121 1 10 7 38 13
63 9 34 9 55 1 88 -14 51 -73 119 -118 139 -68 28 -167 10 -222 -40 -55 -50
-77 -159 -48 -230 29 -68 121 -127 199 -127 24 0 34 -12 84 -96 115 -196 216
-439 260 -629 14 -59 19 -115 18 -215 -2 -150 -25 -262 -82 -398 l-31 -72 909
0 909 0 -31 72 c-60 143 -81 247 -81 408 0 131 3 156 31 261 52 193 140 397
254 587 42 70 53 82 76 82 78 0 170 60 199 127 28 68 10 167 -40 222 -50 55
-159 77 -230 48 -45 -20 -104 -88 -118 -139 -9 -34 -8 -55 2 -98 7 -30 13 -59
14 -63 0 -10 -288 -216 -295 -210 -2 2 -39 171 -81 376 l-76 372 40 34 c86 75
92 195 12 289 -39 46 -79 64 -145 64 -120 0 -200 -83 -200 -207 0 -61 9 -86
46 -125 l23 -25 -152 -317 c-84 -175 -155 -318 -158 -318 -3 0 -74 142 -158
317 -151 314 -151 316 -132 337 72 80 67 202 -11 283 -38 39 -120 68 -163 57z
m90 -129 c20 -19 25 -35 25 -71 0 -65 -27 -94 -87 -94 -25 0 -53 4 -63 10 -24
13 -43 72 -35 110 15 67 111 95 160 45z m878 5 c44 -35 42 -136 -3 -160 -24
-13 -96 -13 -120 0 -24 13 -43 72 -35 110 14 64 104 92 158 50z m-707 -722
c109 -229 202 -414 206 -410 6 6 176 356 355 732 49 103 56 112 64 90 4 -14
47 -218 95 -455 48 -236 90 -434 94 -438 4 -5 78 42 165 103 86 61 159 109
161 107 2 -2 -13 -35 -34 -73 -87 -159 -160 -346 -191 -489 -10 -44 -21 -79
-24 -78 -4 1 -51 16 -104 33 -447 143 -717 143 -1170 -1 -51 -17 -96 -29 -100
-27 -4 2 -19 51 -34 109 -34 133 -83 259 -164 416 -34 68 -58 120 -51 116 6
-4 80 -56 165 -116 84 -60 157 -105 161 -100 3 4 46 204 94 443 97 485 95 475
105 464 4 -5 97 -197 207 -426z m-930 122 c28 0 64 -47 64 -84 0 -71 -35 -106
-106 -106 -53 0 -84 36 -84 98 0 26 6 56 13 65 13 19 65 38 85 31 8 -2 20 -4
28 -4z m2340 0 c55 0 76 -119 29 -165 -41 -42 -131 -29 -154 22 -16 34 -14 85
4 111 16 22 70 43 93 36 8 -2 20 -4 28 -4z m-1023 -1021 c97 -14 210 -43 342
-86 137 -44 145 -48 145 -77 0 -18 -18 -34 -85 -75 -47 -28 -85 -55 -85 -59 0
-4 43 -34 96 -66 52 -33 98 -64 102 -70 8 -13 42 -117 42 -131 0 -7 -253 -10
-740 -10 -407 0 -740 2 -740 5 0 3 7 34 17 71 l16 65 103 65 c57 35 103 67
104 71 0 4 -38 30 -85 58 -73 44 -85 55 -85 78 0 26 6 30 93 59 143 50 233 74
342 94 115 20 312 24 418 8z"/>
    <path d="M1495 820 c-55 -33 -101 -63 -102 -67 -2 -6 168 -119 199 -131 13 -6
219 119 213 128 -5 8 -200 130 -207 130 -2 0 -48 -27 -103 -60z"/>
  </g>
</svg>
