<?xml version="1.0" standalone="no"?>
<!DOCTYPE svg PUBLIC "-//W3C//DTD SVG 20010904//EN"
  "http://www.w3.org/TR/2001/REC-SVG-20010904/DTD/svg10.dtd">
<svg version="1.0" xmlns="http://www.w3.org/2000/svg"
     width="320.000000pt" height="320.000000pt" viewBox="0 0 320.000000 320.000000"
     preserveAspectRatio="xMidYMid meet">
  <metadata>
    Created by potrace 1.14, written by Peter Selinger 2001-2017
  </metadata>
  <g transform="translate(0.000000,320.000000) scale(0.100000,-0.100000)"
     fill="#000000" stroke="none">
    <path d="M1706 2795 c-92 -123 -116 -142 -391 -314 -122 -77 -179 -123 -208
-167 -15 -23 -117 -98 -317 -232 l-295 -199 -5 -232 c-4 -181 -2 -230 7 -227
7 3 53 32 101 65 l89 60 39 -40 c24 -24 35 -43 28 -47 -127 -86 -163 -117
-152 -127 18 -16 306 -175 318 -175 5 0 28 35 51 77 49 92 80 128 132 154 51
27 157 38 253 28 43 -4 85 -8 92 -8 20 -1 14 -18 -28 -85 -52 -82 -104 -129
-166 -150 -129 -43 -299 -264 -357 -466 -27 -94 -47 -231 -47 -327 l0 -63 970
0 c534 0 970 3 970 6 0 3 -13 46 -30 95 -56 167 -73 277 -67 434 3 77 11 190
17 250 15 140 7 439 -15 565 -46 259 -138 445 -300 604 -104 103 -207 176
-422 297 -22 13 -42 48 -98 178 -38 88 -73 161 -76 161 -4 0 -45 -52 -93 -115z
m114 -206 l44 -101 70 -35 c183 -92 294 -187 397 -340 161 -241 213 -416 212
-718 0 -93 -6 -222 -13 -285 -19 -174 -17 -416 5 -530 10 -52 18 -105 19 -118
l1 -22 -790 0 -790 0 -3 40 c-8 99 45 256 125 378 58 88 169 199 211 213 106
34 177 92 226 184 33 63 110 166 133 179 10 6 45 13 78 17 114 12 197 74 253
190 50 101 58 189 26 279 -3 8 -19 -25 -35 -75 -66 -198 -148 -284 -293 -304
-36 -5 -79 -17 -95 -27 -28 -17 -32 -17 -68 -1 -63 29 -133 35 -250 21 -192
-21 -256 -49 -354 -151 l-62 -64 -34 18 c-18 9 -33 20 -33 24 0 4 25 26 55 49
30 23 55 46 55 51 0 12 -200 219 -211 219 -5 0 -27 -11 -49 -25 -22 -14 -42
-25 -45 -25 -3 0 -5 43 -5 95 l0 94 283 187 c201 133 290 197 309 225 38 53
109 107 318 238 150 94 188 123 222 167 22 30 41 54 43 54 1 0 21 -45 45 -101z"/>
    <path d="M1395 2238 l-97 -83 168 -3 c92 -1 169 0 172 2 21 21 -76 147 -124
161 -17 4 -43 -13 -119 -77z"/>
  </g>
</svg>
