<?xml version="1.0" standalone="no"?>
<!DOCTYPE svg PUBLIC "-//W3C//DTD SVG 20010904//EN"
  "http://www.w3.org/TR/2001/REC-SVG-20010904/DTD/svg10.dtd">
<svg version="1.0" xmlns="http://www.w3.org/2000/svg"
     width="320.000000pt" height="320.000000pt" viewBox="0 0 320.000000 320.000000"
     preserveAspectRatio="xMidYMid meet">
  <metadata>
    Created by potrace 1.14, written by Peter Selinger 2001-2017
  </metadata>
  <g transform="translate(0.000000,320.000000) scale(0.100000,-0.100000)"
     fill="#000000" stroke="none">
    <path d="M1528 2808 l-3 -73 -80 -1 -80 -2 -3 -70 -3 -71 83 -3 83 -3 3 -116
3 -117 -43 -25 c-44 -26 -130 -110 -162 -159 l-17 -27 -61 49 c-70 56 -173
113 -237 130 -59 15 -166 16 -233 0 -210 -49 -421 -247 -473 -445 -22 -86 -20
-233 6 -325 51 -184 173 -366 379 -564 l103 -98 -43 -257 c-23 -141 -44 -268
-47 -283 l-5 -28 901 0 901 0 -5 23 c-12 51 -85 507 -85 529 0 17 21 43 71 87
89 81 207 214 271 309 200 296 211 596 29 817 -85 104 -221 194 -344 230 -69
20 -183 22 -247 5 -68 -18 -189 -84 -246 -135 l-52 -45 -43 57 c-46 58 -124
127 -159 138 -19 6 -20 15 -20 131 l0 124 85 0 86 0 -3 71 -3 71 -80 2 -80 1
-3 73 -3 72 -69 0 -69 0 -3 -72z m140 -597 c42 -31 145 -148 140 -160 -2 -3
-24 -38 -50 -77 -46 -70 -100 -189 -133 -294 -9 -30 -19 -62 -22 -70 -3 -9
-11 6 -20 35 -30 105 -89 242 -140 323 -29 46 -53 88 -53 92 0 13 124 143 155
162 42 26 76 23 123 -11z m-614 -35 c146 -72 247 -182 341 -371 82 -166 126
-341 140 -557 l8 -105 -114 -6 c-145 -7 -290 -36 -454 -92 l-130 -44 -93 92
c-171 169 -299 363 -337 512 -52 206 35 405 235 534 140 91 272 103 404 37z
m1365 25 c130 -40 276 -166 332 -285 91 -194 45 -397 -148 -648 -55 -72 -195
-221 -234 -248 -26 -19 -27 -19 -102 11 -161 62 -397 109 -548 109 l-59 0 0
68 c0 309 126 656 305 838 148 150 301 203 454 155z m-570 -1187 c117 -17 259
-51 366 -87 67 -23 70 -25 76 -61 7 -41 7 -41 -109 -111 -40 -23 -60 -41 -54
-47 5 -5 54 -35 108 -67 l99 -57 12 -59 c7 -33 12 -66 10 -73 -2 -10 -157 -13
-761 -15 l-758 -2 6 55 c11 91 11 92 109 147 147 83 144 71 38 134 l-92 54 6
35 c4 19 10 38 13 42 10 9 194 66 272 85 186 43 470 55 659 27z"/>
    <path d="M1486 848 l-99 -61 26 -21 c15 -12 62 -43 105 -69 l79 -48 106 63
c59 35 107 65 107 68 0 9 -199 130 -212 129 -7 0 -58 -28 -112 -61z"/>
  </g>
</svg>
